<svg width="100" height="100" viewBox="0 0 100 100" fill="none" xmlns="http://www.w3.org/2000/svg">
<rect width="100" height="100" rx="50" fill="black"/>
<rect width="100" height="100" rx="50" stroke="white"/>
<path d="M65.056 89H2.736V81.096C2.736 80.184 2.93867 79.1707 3.344 78.056C3.85067 76.6373 4.45867 75.5227 5.168 74.712L42.56 25.464H18.088C17.6827 29.5173 17.3787 32.0507 17.176 33.064C16.6693 34.9893 15.504 35.952 13.68 35.952H4.864V11.024H63.992V18.776C63.992 20.1947 63.7893 21.4613 63.384 22.576C63.08 23.2853 62.472 24.3493 61.56 25.768L24.624 74.56H51.832L52.744 66.352C53.2507 64.4267 54.416 63.464 56.24 63.464H65.056V89ZM72.2333 78.664C72.2333 76.9413 72.5373 75.4213 73.1453 74.104C73.7533 72.6853 74.5639 71.4693 75.5773 70.456C76.5906 69.4427 77.8066 68.632 79.2253 68.024C80.6439 67.416 82.1639 67.112 83.7853 67.112C85.4066 67.112 86.9266 67.416 88.3452 68.024C89.7639 68.632 90.9799 69.4427 91.9933 70.456C93.0066 71.4693 93.8173 72.6853 94.4253 74.104C95.0333 75.4213 95.3373 76.9413 95.3373 78.664C95.3373 80.2853 95.0333 81.8053 94.4253 83.224C93.8173 84.5413 93.0066 85.7067 91.9933 86.72C90.9799 87.7333 89.7639 88.544 88.3452 89.152C87.0279 89.76 85.5586 90.064 83.9373 90.064C82.3159 90.064 80.7959 89.76 79.3773 89.152C77.7559 88.4427 76.4893 87.632 75.5773 86.72C74.5639 85.7067 73.7533 84.5413 73.1453 83.224C72.5373 81.8053 72.2333 80.2853 72.2333 78.664Z" fill="white"/>
</svg>
